<?xml version="1.0" encoding="UTF-8" standalone="no"?>
<svg
   version="1.0"
   width="490px"
   height="179px"
   viewBox="0 0 490 179"
   preserveAspectRatio="xMidYMid meet"
   id="svg27"
   sodipodi:docname="Spyctral_logo.svg"
   xml:space="preserve"
   inkscape:version="1.3.2 (091e20e, 2023-11-25, custom)"
   xmlns:inkscape="http://www.inkscape.org/namespaces/inkscape"
   xmlns:sodipodi="http://sodipodi.sourceforge.net/DTD/sodipodi-0.dtd"
   xmlns:xlink="http://www.w3.org/1999/xlink"
   xmlns="http://www.w3.org/2000/svg"
   xmlns:svg="http://www.w3.org/2000/svg"><sodipodi:namedview
     id="namedview27"
     pagecolor="#ffffff"
     bordercolor="#000000"
     borderopacity="0.25"
     inkscape:showpageshadow="2"
     inkscape:pageopacity="0.0"
     inkscape:pagecheckerboard="true"
     inkscape:deskcolor="#d1d1d1"
     showgrid="false"
     inkscape:zoom="1.7897959"
     inkscape:cx="453.12429"
     inkscape:cy="176.55644"
     inkscape:window-width="1920"
     inkscape:window-height="1009"
     inkscape:window-x="-8"
     inkscape:window-y="-8"
     inkscape:window-maximized="1"
     inkscape:current-layer="layer2" /><defs
     id="defs2"><linearGradient
       id="swatch24"
       inkscape:swatch="solid"><stop
         style="stop-color:#ffffff;stop-opacity:1;"
         offset="0"
         id="stop24" /></linearGradient><linearGradient
       id="lg0"
       gradientUnits="userSpaceOnUse"
       x1="14.387755%"
       y1="73.18436%"
       x2="28.265306%"
       y2="7.26257%"><stop
         offset="0%"
         style="stop-color:rgb(46,135,50);"
         id="stop1" /><stop
         offset="100%"
         style="stop-color:rgb(151,206,46);"
         id="stop2" /></linearGradient><linearGradient
       inkscape:collect="always"
       xlink:href="#lg0"
       id="linearGradient12"
       gradientUnits="userSpaceOnUse"
       x1="14.387755%"
       y1="73.18436%"
       x2="28.265306%"
       y2="7.26257%" /><linearGradient
       inkscape:collect="always"
       xlink:href="#lg0"
       id="linearGradient13"
       gradientUnits="userSpaceOnUse"
       x1="14.387755%"
       y1="73.18436%"
       x2="28.265306%"
       y2="7.26257%" /><linearGradient
       inkscape:collect="always"
       xlink:href="#lg0"
       id="linearGradient14"
       gradientUnits="userSpaceOnUse"
       x1="14.387755%"
       y1="73.18436%"
       x2="28.265306%"
       y2="7.26257%" /><linearGradient
       inkscape:collect="always"
       xlink:href="#lg0"
       id="linearGradient15"
       gradientUnits="userSpaceOnUse"
       x1="14.387755%"
       y1="73.18436%"
       x2="28.265306%"
       y2="7.26257%" /><linearGradient
       inkscape:collect="always"
       xlink:href="#lg0"
       id="linearGradient16"
       gradientUnits="userSpaceOnUse"
       x1="14.387755%"
       y1="73.18436%"
       x2="28.265306%"
       y2="7.26257%" /><linearGradient
       inkscape:collect="always"
       xlink:href="#lg0"
       id="linearGradient17"
       gradientUnits="userSpaceOnUse"
       x1="14.387755%"
       y1="73.18436%"
       x2="28.265306%"
       y2="7.26257%" /><linearGradient
       inkscape:collect="always"
       xlink:href="#lg0"
       id="linearGradient18"
       gradientUnits="userSpaceOnUse"
       x1="14.387755%"
       y1="73.18436%"
       x2="28.265306%"
       y2="7.26257%" /><linearGradient
       inkscape:collect="always"
       xlink:href="#lg0"
       id="linearGradient19"
       gradientUnits="userSpaceOnUse"
       x1="14.387755%"
       y1="73.18436%"
       x2="28.265306%"
       y2="7.26257%" /><linearGradient
       inkscape:collect="always"
       xlink:href="#lg0"
       id="linearGradient20"
       gradientUnits="userSpaceOnUse"
       x1="14.387755%"
       y1="73.18436%"
       x2="28.265306%"
       y2="7.26257%" /><linearGradient
       inkscape:collect="always"
       xlink:href="#lg0"
       id="linearGradient21"
       gradientUnits="userSpaceOnUse"
       x1="14.387755%"
       y1="73.18436%"
       x2="28.265306%"
       y2="7.26257%" /><linearGradient
       inkscape:collect="always"
       xlink:href="#lg0"
       id="linearGradient22"
       gradientUnits="userSpaceOnUse"
       x1="14.387755%"
       y1="73.18436%"
       x2="28.265306%"
       y2="7.26257%" /><linearGradient
       inkscape:collect="always"
       xlink:href="#lg0"
       id="linearGradient23"
       gradientUnits="userSpaceOnUse"
       x1="14.387755%"
       y1="73.18436%"
       x2="28.265306%"
       y2="7.26257%" /></defs><g
     inkscape:groupmode="layer"
     id="layer2"
     inkscape:label="Layer 1"
     style="fill:#ffffff;fill-opacity:1"><g
       id="g53"><path
         style="fill:#ffffff;fill-opacity:1"
         d="m 11.704412,93.68894 0.73468,8.5914 146.877888,69.94197 10.25974,-0.058 0.90223,-52.18641 303.70618,-0.0181 -0.27712,-50.290498 -303.18416,-0.57276 -0.0838,-46.368182 -7.49502,-0.413257 z"
         id="path53" /><g
         id="g1"
         transform="translate(0.27936145,-0.6031927)"
         inkscape:label="g1"><g
           fill="none"
           stroke="#fefefe"
           stroke-width="0.5"
           id="g3"><path
             d="M 0,89.5 V 0 H 245 490 V 89.5 179 H 245 0 Z M 164.5,98 c 0,-54.65 -0.15,-69.35 -0.65,-69.8 -0.45,-0.45 -1.2,-0.3 -3.35,0.75 -1.5,0.75 -5.8,2.75 -9.5,4.5 -3.7,1.75 -9.1,4.3 -12,5.65 -2.9,1.4 -6.95,3.3 -9,4.25 -2.05,1 -7.2,3.45 -11.4,5.45 -4.2,2.05 -7.7,3.7 -7.8,3.7 -0.1,0 -4.2,1.95 -9.15,4.3 C 96.75,59.2 88.8,63 84,65.25 75.35,69.35 59.7,76.75 49.5,81.6 46.6,83 42.45,84.95 40.25,86 c -2.2,1.05 -6.9,3.3 -10.5,5 -3.55,1.7 -8.25,3.9 -10.35,4.85 -2.15,1 -3.9,2 -3.9,2.25 0,0.25 1.4,1.1 3.15,1.85 2.9,1.35 7.35,3.45 18.85,8.9 2.6,1.25 6.55,3.15 8.75,4.15 2.2,1.05 6.15,2.9 8.75,4.15 2.6,1.2 6.8,3.2 9.25,4.35 2.5,1.15 7.1,3.35 10.25,4.85 3.15,1.55 7.55,3.6 9.75,4.65 2.2,1.05 6.5,3.05 9.5,4.5 3.05,1.45 7.1,3.35 9,4.25 6.65,3.1 12.05,5.65 24.15,11.45 6.7,3.2 12.25,5.8 12.35,5.8 0.1,0 9.55,4.45 21.5,10.2 1.95,0.95 2.65,1.05 3.15,0.6 0.5,-0.5 0.6,-14.6 0.6,-69.8 z m 177,-0.75 c 0,-18.4 0,-18.75 -1,-18.75 -1,0 -1,0.35 -1,18.75 0,18.4 0,18.75 1,18.75 1,0 1,-0.35 1,-18.75 z m -76.6,9.45 c 0.1,-8 0.05,-8.6 -0.8,-8.8 -0.55,-0.15 -3.1,-3.7 -6,-8.2 -4.7,-7.45 -5.8,-8.9 -8.35,-10.7 -0.95,-0.75 -0.95,-0.75 -0.1,0.5 0.5,0.7 3.6,5.3 6.85,10.25 l 6,9 v 8.4 8.4 l 1.15,-0.15 c 1.1,-0.15 1.1,-0.25 1.25,-8.7 z m 104.6,-10 V 77.9 l -1.35,0.35 c -0.8,0.2 -1.4,0.35 -1.4,0.4 0,0.05 0.05,8.35 0.15,18.5 l 0.15,18.35 h 1.25 1.2 z m 77.4,1.7 c -0.1,-9.45 -0.35,-17.55 -0.6,-18.05 -0.25,-0.5 -0.85,-1.1 -1.45,-1.4 -0.9,-0.5 -0.95,-0.45 -0.7,0.6 0.2,0.65 0.35,9 0.35,18.6 v 17.35 h 1.3 1.25 z m -228.25,14.25 c 0.15,-1.35 0.3,-9.75 0.3,-18.75 L 219,77.5 h -1.75 c -1.65,0 -1.7,0.05 -1.25,1.3 0.3,0.75 0.5,8.6 0.5,18.75 0,16.85 0.05,17.45 0.95,17.45 0.75,0 1,-0.45 1.2,-2.35 z m 169.2,0.25 C 385,109.2 380,100.2 380,98.9 c 0,-1.25 -0.2,-1.4 -1.55,-1.4 -1.5,0 -1.55,0.05 -0.85,1.15 0.4,0.6 1.85,3 3.15,5.35 2.75,4.8 4.3,7.05 6.45,9.35 1.85,2.05 2.3,1.75 0.65,-0.45 z m 41.45,0.25 c -0.4,-0.8 -3.3,-7.8 -6.45,-15.65 -3.2,-7.85 -6.1,-15 -6.45,-15.9 l -0.7,-1.6 -0.85,1.75 c -1,2.15 -1.05,2.25 -0.2,2.25 0.75,0 0.95,0.35 5.1,10.5 1.5,3.7 2.75,7.3 2.75,8 0,0.7 0.45,1.55 1,1.9 0.55,0.35 1,0.9 1,1.25 0,1.8 4.3,8.85 5.35,8.85 0.1,0 -0.15,-0.6 -0.55,-1.35 z m -137.9,-1.5 c -2.2,-2.55 -3.9,-8.85 -3.9,-14.55 0,-3.55 1.15,-10.4 2,-12.25 0.55,-1.1 0.55,-1.1 -0.25,-0.1 -1.6,1.9 -3.2,5.7 -4,9.2 -0.75,3.25 -0.75,3.8 0,7.25 0.8,3.65 3.15,8.3 5.35,10.65 1.25,1.3 1.95,1.1 0.8,-0.2 z m -88.85,-3.25 c 0.4,-1.55 0.3,-2.2 -0.5,-3.75 -1.35,-2.7 -3,-4.05 -10,-8.4 -10.3,-6.35 -10.5,-6.65 -10.6,-11.85 l -0.05,-3.15 -1,2.2 c -0.9,1.9 -0.95,2.45 -0.4,4.2 0.75,2.55 3.65,5.65 7.35,7.85 6.75,4 11.3,7.2 12.2,8.7 0.65,1.1 0.95,2.5 0.95,4.8 0.05,3 0.1,3.15 0.8,2.25 0.4,-0.55 0.95,-1.8 1.25,-2.85 z M 235.8,94.9 c 3.9,-4.25 3.4,-10.7 -1.1,-14.15 l -1.7,-1.3 1.3,1.9 c 1.2,1.8 1.25,2.2 1.1,7.15 -0.15,4.6 -0.3,5.45 -1.35,6.95 -1,1.4 -1.05,1.6 -0.25,1.15 0.5,-0.3 1.45,-1.05 2,-1.7 z m 151,-2 c 1.6,-1.75 2.2,-3.15 2.2,-5.15 0,-2.1 -0.6,-3.45 -2.4,-5.35 -1.55,-1.65 -2.45,-1.85 -1.4,-0.3 0.6,0.8 0.8,2.35 0.8,5.55 0,3.75 -0.15,4.7 -1.1,5.95 -0.95,1.4 -0.95,1.45 -0.1,1 0.5,-0.3 1.45,-1.05 2,-1.7 z"
             id="path2" /><path
             d="m 153.75,162.5 c -8.75,-4.25 -22.9,-11 -23.1,-11 -0.1,0 -3.5,-1.6 -7.55,-3.55 -4.05,-1.95 -11.05,-5.3 -15.6,-7.45 -4.55,-2.15 -10.7,-5.05 -13.75,-6.5 -3,-1.45 -7.3,-3.45 -9.5,-4.5 -2.2,-1.05 -6.7,-3.15 -10,-4.75 -3.3,-1.6 -7.8,-3.7 -10,-4.75 -2.2,-1.05 -6.9,-3.25 -10.4,-4.95 -3.5,-1.65 -6.5,-3.05 -6.55,-3.05 -0.1,0 -4.55,-2.1 -9.85,-4.65 -5.35,-2.6 -11.1,-5.3 -12.85,-6.1 -3,-1.35 -3.1,-1.45 -3.1,-3.2 0,-1.75 0.15,-1.9 2.9,-3.15 1.55,-0.75 5.65,-2.7 9.1,-4.3 C 41.2,86.9 57.3,79.25 69,73.75 73.8,71.5 79.9,68.6 82.5,67.4 c 2.6,-1.25 8.85,-4.2 13.85,-6.55 5,-2.4 9.5,-4.55 10,-4.8 0.5,-0.25 2.5,-1.2 4.4,-2.1 6.05,-2.75 10.7,-4.95 20.75,-9.8 5.35,-2.6 13.25,-6.3 17.5,-8.25 4.25,-1.9 7.95,-3.7 8.25,-3.95 0.25,-0.25 1.3,-0.45 2.35,-0.45 h 1.9 V 98 164.5 l -1.85,-0.05 c -1.15,0 -3.55,-0.8 -5.9,-1.95 z m -48.5,-58.05 c 0.95,-1.85 0.8,-2.05 -1.1,-1.85 -1.4,0.15 -1.45,0.25 -1.05,1.8 0.55,2 1.15,2.05 2.15,0.05 z m 29.2,-4.7 c 1.55,-0.55 4.05,-0.7 9.2,-0.65 3.9,0.05 7.65,-0.15 8.35,-0.45 l 1.2,-0.5 -1.1,-0.6 c -0.9,-0.5 -1.1,-0.45 -1.1,0.2 0,0.55 -0.55,0.75 -2.25,0.75 h -2.25 v -2 c 0,-1.85 -0.1,-2 -1.3,-2 -0.75,0 -3.15,0.85 -5.4,1.85 -3.2,1.45 -4.85,1.85 -7.8,2.05 -3.65,0.2 -3.85,0.15 -8.1,-2.1 -2.4,-1.25 -4.45,-2.3 -4.65,-2.3 -0.15,0 0.2,0.7 0.85,1.5 0.6,0.85 1.35,1.5 1.65,1.5 0.3,0 2,0.75 3.75,1.7 3.6,1.9 5.85,2.15 8.95,1.05 z M 113.5,89.25 c -0.6,-0.75 -1.5,-0.6 -1.5,0.3 0,0.25 0.5,0.45 1.05,0.45 0.9,0 0.95,-0.1 0.45,-0.75 z m -18,-5.15 c 0,-0.25 -0.35,-0.85 -0.75,-1.4 -0.75,-0.95 -0.75,-0.95 -1.5,0 -1.1,1.45 -0.95,1.8 0.75,1.8 0.85,0 1.5,-0.2 1.5,-0.4 z"
             id="path3" /></g><g
           fill="#89c527"
           id="g4"><path
             fill="url(#lg0)"
             d="m 160,51 c 0,-9.9 -0.2,-18 -0.4,-18 -0.2,0 -0.6,0.2 -0.85,0.45 -0.3,0.25 -4,2.05 -8.25,3.95 -4.25,1.95 -10.1,4.65 -13,6.05 -2.9,1.4 -5.4,2.55 -5.6,2.55 -0.25,0 -0.4,-0.75 -0.4,-1.65 0,-1.4 0.25,-1.75 1.7,-2.25 2.25,-0.85 5.5,-3.45 4.7,-3.75 -0.95,-0.35 0.65,-1.4 4.55,-3.1 1.8,-0.8 6.95,-3.2 11.45,-5.35 7.95,-3.85 10.3,-4.5 11.5,-3.3 0.45,0.45 0.6,5.35 0.6,18.95 V 63.9 l -2,0.35 c -2,0.35 -2,0.35 -2,2.55 0,1.85 -0.15,2.2 -1,2.2 -1,0 -1,-0.35 -1,-18 z"
             id="path4"
             style="fill:url(#linearGradient12)" /></g><g
           fill="#79b92a"
           id="g6"><path
             fill="url(#lg0)"
             d="m 160.05,85.9 c 0.05,-9.7 0.2,-19.3 0.4,-21.3 0.3,-3.6 1.05,-4.75 1.6,-2.5 0.25,1.1 0.3,1.05 1.25,-0.6 l 0.95,-1.75 0.15,1.4 c 0.1,0.75 0.45,1.35 0.9,1.35 0.7,0 0.9,3.3 0.85,14 -0.05,2.05 -0.05,7.4 -0.1,11.9 L 166,96.5 h -2 -2 v 3.5 c 0,3.15 -0.1,3.5 -1,3.5 -1,0 -1,-0.3 -0.95,-17.6 z"
             id="path5"
             style="fill:url(#linearGradient13)" /><path
             fill="url(#lg0)"
             d="m 97,60.75 c 0,-1.6 0.1,-1.75 1.5,-1.75 0.9,0 1.5,-0.25 1.5,-0.65 0,-0.4 0.6,-1 1.4,-1.35 1.3,-0.65 1.3,-0.7 0.25,-0.9 -2.4,-0.4 -1.85,-0.75 7.35,-4.95 2.05,-0.95 6.25,-2.95 9.25,-4.4 15.4,-7.4 21.65,-10.25 22.5,-10.25 0.8,0 1.5,1.95 0.9,2.5 -1,1.05 -4.1,3.1 -6.2,4.15 -1.25,0.6 -2.2,1.4 -2.05,1.75 0.1,0.35 -1.5,1.4 -4,2.55 -2.25,1.05 -6.6,3.1 -9.65,4.55 -3,1.4 -6.75,3.15 -8.25,3.85 -1.5,0.7 -5.3,2.5 -8.4,3.95 -3.1,1.5 -5.7,2.7 -5.85,2.7 C 97.1,62.5 97,61.7 97,60.75 Z"
             id="path6"
             style="fill:url(#linearGradient14)" /></g><g
           fill="#62ac2b"
           id="g9"><path
             fill="url(#lg0)"
             d="m 160.05,119.5 c 0.15,-19 0.35,-24.6 0.85,-25.1 0.45,-0.45 0.75,-0.5 1,-0.1 0.2,0.3 1.1,0.55 2,0.55 0.85,0 1.7,0.1 1.8,0.2 0.15,0.15 0.3,9.95 0.35,21.85 0.15,20.9 0.1,21.6 -0.8,22.35 -0.55,0.4 -1.5,0.75 -2.1,0.75 -1,0 -1.15,0.25 -1.15,2 0,1.7 -0.15,2 -1.05,2 h -1.05 z"
             id="path7"
             style="fill:url(#linearGradient15)" /><path
             fill="url(#lg0)"
             d="M 61,77.75 C 61,76.8 61.25,76 61.5,76 c 0.3,0 0.95,-0.45 1.5,-1 0.55,-0.55 1.75,-1.15 2.6,-1.35 0.95,-0.2 2.4,-1.2 3.65,-2.45 2.05,-2.2 3.3,-2.85 29.15,-15 2.6,-1.2 4.95,-2.2 5.3,-2.2 0.65,0 2.3,1.55 2.3,2.1 0,0.2 -1,0.95 -2.25,1.8 -1.2,0.8 -2.05,1.6 -1.85,1.8 0.55,0.6 -1.05,1.3 -2.3,0.95 -0.85,-0.2 -1.05,-0.1 -0.85,0.45 0.2,0.55 -0.8,1.25 -3.6,2.55 -2.15,0.95 -6.6,3.05 -9.9,4.65 -8.8,4.2 -23.9,11.2 -24.1,11.2 C 61.1,79.5 61,78.7 61,77.75 Z"
             id="path8"
             style="fill:url(#linearGradient16)" /><path
             fill="url(#lg0)"
             d="m 109,56.15 c 0,-0.35 -0.25,-0.65 -0.6,-0.65 -0.35,0 -1.1,-0.6 -1.7,-1.35 l -1.05,-1.35 1.65,-0.9 c 0.95,-0.5 2,-0.9 2.4,-0.9 1.15,0 1.3,2.6 0.25,4.25 -0.5,0.85 -0.95,1.2 -0.95,0.9 z"
             id="path9"
             style="fill:url(#linearGradient17)" /></g><g
           fill="#48992f"
           id="g14"><path
             fill="url(#lg0)"
             d="m 158.75,168.5 c -6.95,-3.35 -20.45,-9.75 -26.7,-12.65 -3.7,-1.7 -6.8,-3.4 -6.95,-3.75 -0.1,-0.4 0.65,-0.6 2.75,-0.65 1.6,-0.05 2.4,-0.2 1.8,-0.3 -0.8,-0.15 -1.15,-0.55 -1.15,-1.45 0,-0.65 0.1,-1.2 0.2,-1.2 0.3,0 5.55,2.45 13.55,6.25 13.05,6.25 17.4,8.25 17.55,8.15 0.05,-0.1 0.2,-6.85 0.3,-15 0.1,-8.2 0.4,-15.05 0.6,-15.25 0.2,-0.2 0.55,-0.05 0.8,0.35 0.65,1.05 0.6,3.7 -0.1,4.4 -0.45,0.45 -0.35,0.65 0.3,0.9 0.5,0.2 1.1,0.1 1.45,-0.25 0.3,-0.3 1.05,-0.55 1.7,-0.55 H 166 v 15.65 c 0,11.5 -0.15,15.8 -0.6,16.25 -0.95,0.95 -3.45,0.65 -6.65,-0.9 z"
             id="path10"
             style="fill:url(#linearGradient18)" /><path
             fill="url(#lg0)"
             d="m 118.65,149.5 c -5.5,-2.6 -6.7,-4 -3.4,-4 1.2,0 1.75,0.25 1.75,0.75 0,0.4 0.45,0.75 1,0.75 0.8,0 1,-0.35 1,-1.5 0,-0.8 0.1,-1.5 0.2,-1.5 0.8,0 8.8,4.2 8.8,4.6 0,0.35 -0.85,0.45 -2.25,0.3 -1.25,-0.15 -2.25,-0.1 -2.25,0.15 0,0.25 0.25,0.45 0.5,0.45 0.3,0 0.5,0.55 0.5,1.25 0,0.7 -0.15,1.25 -0.35,1.2 -0.25,0 -2.7,-1.1 -5.5,-2.45 z"
             id="path11"
             style="fill:url(#linearGradient19)" /><path
             d="m 108.5,144.65 c -2.05,-0.95 -5.15,-2.4 -6.9,-3.2 -3.5,-1.6 -3.8,-2.6 -0.95,-2.85 1.4,-0.1 1.85,0.05 1.85,0.6 0,0.55 0.65,0.9 2,1.1 1.2,0.2 2,0.6 2,1 0,0.4 0.45,0.7 1,0.7 0.55,0 1,0.35 1,0.75 0,0.55 0.6,0.75 2.25,0.75 2.15,0 2.25,0.05 2.25,1.5 0,0.85 -0.15,1.5 -0.35,1.5 -0.25,-0.05 -2.1,-0.85 -4.15,-1.85 z"
             id="path12" /><path
             d="M 77.5,125.5 V 124 l 2,1 c 1.1,0.55 2,1.25 2,1.5 0,0.3 -0.9,0.5 -2,0.5 -1.9,0 -2,-0.1 -2,-1.5 z"
             id="path13" /><path
             fill="url(#lg0)"
             d="m 28.5,93.8 c 0,-0.65 0.35,-1.3 0.75,-1.5 0.4,-0.15 0.75,-0.6 0.75,-1 0,-0.65 1.2,-1.35 5.5,-3.2 1.2,-0.5 1.2,-0.55 0.15,-0.55 -2.15,-0.1 -1.15,-1.1 3,-3 2.25,-1.05 6.8,-3.2 10.1,-4.8 10.3,-4.9 21.95,-10.35 23.1,-10.8 1,-0.4 1.05,-0.3 0.55,1.15 -0.65,1.75 -3.6,4.9 -4.7,4.9 -1.4,0 -3.7,1.5 -3.4,2.2 0.2,0.55 0,0.65 -0.75,0.45 -0.8,-0.2 -1,-0.1 -0.8,0.45 0.2,0.55 -2.2,1.9 -9.1,5.15 -5.15,2.45 -12.85,6.1 -17.1,8.1 -4.2,2 -7.75,3.65 -7.85,3.65 -0.1,0 -0.2,-0.55 -0.2,-1.2 z"
             id="path14"
             style="fill:url(#linearGradient20)" /></g><g
           fill="#368c32"
           id="g18"><path
             fill="url(#lg0)"
             d="m 141,158.5 c -0.4,-0.2 -1.3,-0.65 -2,-0.95 -0.7,-0.35 -1.75,-0.9 -2.4,-1.25 -1.05,-0.6 -1.05,-0.7 -0.25,-0.95 0.5,-0.2 1.3,-0.6 1.8,-0.95 0.75,-0.55 1,-0.5 1.55,0.25 0.4,0.5 0.9,0.85 1.1,0.8 0.25,-0.05 1.15,0.15 1.95,0.5 1.4,0.6 1.4,0.7 0.5,1.05 -0.55,0.25 -0.7,0.45 -0.35,0.45 0.3,0.05 0.6,0.4 0.6,0.8 0,0.8 -1.3,0.95 -2.5,0.25 z"
             id="path15"
             style="fill:url(#linearGradient21)" /><path
             fill="url(#lg0)"
             d="m 128.8,153.9 c -0.45,-0.6 -0.8,-0.85 -0.8,-0.55 0,0.35 -1.2,0 -2.95,-0.9 -3.05,-1.55 -3.75,-2.65 -3.2,-4.8 0.25,-1.05 0.45,-1.15 2.1,-0.85 1,0.2 3.4,1.05 5.3,1.95 1.95,0.9 3.85,1.75 4.25,1.9 0.5,0.2 0.35,0.3 -0.35,0.3 -0.8,0.05 -1.15,0.35 -1.15,1.05 0,1.4 -0.1,1.65 -0.8,2.4 -0.9,0.9 -1.55,0.75 -2.4,-0.5 z"
             id="path16"
             style="fill:url(#linearGradient22)" /><path
             fill="url(#lg0)"
             d="m 116.65,148.45 c -0.65,-0.2 -1.15,-0.65 -1.15,-0.95 0,-0.3 -0.2,-0.4 -0.5,-0.25 -0.6,0.35 -3.5,-1.1 -3.5,-1.8 0,-0.3 -0.2,-0.35 -0.5,-0.2 -0.6,0.35 -6,-2.15 -6,-2.8 0,-0.3 -0.2,-0.35 -0.5,-0.2 -0.6,0.35 -3.5,-1.1 -3.5,-1.75 0,-0.25 -0.3,-0.35 -0.65,-0.2 -0.35,0.1 -3.8,-1.25 -7.65,-3.1 -3.8,-1.8 -8.5,-4.05 -10.45,-4.95 -1.9,-0.9 -6.1,-2.85 -9.25,-4.4 -3.15,-1.5 -7.75,-3.7 -10.25,-4.85 -2.45,-1.15 -6.65,-3.15 -9.25,-4.35 -2.6,-1.25 -6.55,-3.1 -8.75,-4.15 -2.2,-1 -6.15,-2.9 -8.75,-4.15 -11.45,-5.45 -15.95,-7.55 -18.85,-8.85 -3.2,-1.45 -4.4,-2.8 -3.8,-4.25 0.15,-0.5 3.15,-2.2 6.6,-3.85 11.55,-5.45 16.9,-7.9 17.3,-7.9 0.25,0 0.8,-0.3 1.2,-0.7 0.45,-0.4 1.4,-0.85 2.1,-1.05 1.3,-0.3 1.3,-0.3 0.75,1.45 -0.3,1 -0.7,1.8 -0.95,1.8 -0.2,0 -1.05,0.65 -1.85,1.4 -1.1,1.1 -1.35,1.55 -0.9,2 0.45,0.45 0.45,0.6 -0.1,0.6 -0.4,0 -1.05,-0.2 -1.4,-0.45 -0.9,-0.55 -4.6,1.3 -4.3,2.15 0.15,0.45 -1.35,1.45 -4.25,2.85 -2.5,1.2 -4.55,2.35 -4.55,2.5 0,0.2 1.4,0.95 3.15,1.7 1.7,0.8 7.45,3.5 12.8,6.1 5.3,2.55 9.75,4.65 9.85,4.65 0.15,0 4.6,2.1 18.3,8.65 4.3,2.05 8.75,4.15 9.85,4.65 1.15,0.5 2.05,1.05 2.05,1.3 0,0.2 0.3,0.4 0.7,0.4 0.7,0 3.45,1.25 16.5,7.45 3.55,1.7 10.55,5 15.6,7.35 6.5,3.1 9.05,4.5 8.85,5 -0.15,0.4 0,0.7 0.3,0.7 0.75,0 0.7,1.25 -0.05,1.85 -1.05,0.8 -3.05,1.1 -4.25,0.6 z"
             id="path17"
             style="fill:url(#linearGradient23)" /><path
             d="m 243.15,78.15 c -1.6,-0.3 -1.5,-1.65 0.1,-1.65 0.9,0 1.25,0.25 1.25,1 0,0.55 -0.05,0.95 -0.1,0.95 -0.1,-0.05 -0.65,-0.2 -1.25,-0.3 z"
             id="path18" /></g><g
           fill="#016839"
           id="g20"><path
             d="m 261,108.65 v -8.4 l -5.9,-9 c -6.2,-9.4 -8.35,-12.05 -10.7,-12.85 -0.75,-0.3 -1.4,-0.7 -1.4,-1 0,-0.25 -0.3,-0.3 -0.6,-0.1 -0.5,0.25 -0.5,0.2 -0.05,-0.3 0.4,-0.4 1.75,-0.55 4.3,-0.4 5.2,0.25 6.3,1.25 12.85,11.4 2.9,4.5 5.5,8.25 5.75,8.3 0.3,0.1 1.3,-1.2 2.25,-2.9 2.6,-4.55 9.35,-15.55 10,-16.25 0.65,-0.8 2.5,-0.85 2.5,-0.1 0,0.3 -1.6,3.15 -3.6,6.35 -1.95,3.25 -4.9,8.1 -6.6,10.85 l -3.05,5 -0.25,8.75 -0.25,8.75 -2.6,0.15 -2.65,0.15 z"
             id="path19" /><path
             d="m 215,99.1 c 0,-11.45 -0.2,-18 -0.55,-19.05 -0.6,-1.75 -1.75,-2.55 -3.65,-2.55 -1.75,0 -2.1,-0.9 -0.55,-1.3 2.55,-0.65 19.85,0.1 22.15,0.95 5.2,1.95 7.8,5.75 7.8,11.35 0,4.8 -1.95,8.05 -5.95,10.15 -1.55,0.8 -3.25,1.1 -7.6,1.35 -3.05,0.15 -5.75,0.4 -5.95,0.6 -0.15,0.2 -0.35,3.8 -0.4,8 l -0.05,7.65 -2.6,0.15 -2.65,0.15 z m 15.35,-2.95 C 233,94.05 234,91.8 234,88.1 c 0,-1.8 -0.3,-3.75 -0.75,-4.55 -0.95,-1.9 -3.3,-3.85 -5.55,-4.55 -1.6,-0.55 -6.4,-0.5 -6.95,0.05 -0.15,0.2 -0.35,10.1 -0.25,16.3 0,2.45 0.4,2.65 4.9,2.45 2.6,-0.15 3.5,-0.45 4.95,-1.65 z"
             id="path20" /></g><g
           fill="#010101"
           id="g27"><path
             d="m 184.95,117.05 c -5.55,-1.8 -6.95,-3.6 -6.95,-9.15 0,-2.15 0.2,-3.9 0.45,-3.9 0.25,0 0.85,1.2 1.25,2.65 1,3.4 2.3,5.4 4.6,7.15 1.55,1.2 2.4,1.45 5.55,1.6 4.6,0.25 5.55,0 7.55,-1.95 1.3,-1.3 1.6,-1.95 1.6,-3.8 0,-4.15 -1.05,-5.25 -10.3,-10.9 -3,-1.85 -6.2,-4.05 -7.15,-4.9 -3.4,-3.2 -4.45,-8.05 -2.6,-12.1 1.2,-2.75 3.55,-4.55 6.95,-5.55 5.5,-1.65 13.4,0.5 15.95,4.25 0.95,1.4 1.15,2.35 1.15,5.4 0,4.45 -0.7,4.65 -2,0.55 -1.15,-3.75 -2.75,-5.85 -5.2,-6.9 -6.6,-2.9 -12.8,-0.65 -12.8,4.55 0,3.9 0.65,4.6 10.55,10.7 7.05,4.35 8.6,5.7 10.05,8.45 2.25,4.35 -0.1,10.8 -4.85,13.4 -2.2,1.2 -3.05,1.35 -6.75,1.35 -2.7,0 -5.3,-0.35 -7.05,-0.9 z"
             id="path21" /><path
             d="m 293.65,116.25 c -5.15,-2.5 -8.1,-6.5 -9.75,-13 -1.1,-4.35 -1.1,-6.75 -0.1,-11.1 2.7,-11.7 12,-18.3 22.8,-16.15 3.9,0.75 7.35,2.5 9.1,4.5 1.15,1.4 1.3,2 1.3,5.3 0,3.85 -0.65,4.9 -1.25,2.1 -1.65,-7.6 -8.7,-11.5 -16.55,-9.15 -5.25,1.55 -8.55,6.35 -9.75,14.15 -1.4,9.25 2.15,18.6 8.2,21.55 1.65,0.8 3.15,1.05 6.1,1.05 4.95,0 7.4,-1.15 11.05,-5.15 4.25,-4.75 4.75,-2.45 0.5,2.5 -1,1.15 -3.2,2.75 -4.9,3.6 -2.8,1.45 -3.45,1.55 -8.1,1.55 -4.75,0 -5.25,-0.1 -8.65,-1.75 z"
             id="path22" /><path
             d="m 337.9,98.4 -0.15,-19.15 -2.4,-0.15 c -3.95,-0.25 -7.6,0.75 -9.1,2.45 -0.7,0.85 -1.25,1.95 -1.25,2.45 0,1.4 -0.55,2.55 -1.05,2.2 -0.7,-0.45 -0.5,-5.6 0.3,-7.15 1.2,-2.3 3.35,-2.6 18.75,-2.4 13.7,0.15 13.75,0.15 13.9,1.25 0.15,1.05 0.05,1.05 -6.75,1.2 l -6.9,0.15 -0.15,19.15 -0.1,19.1 h -2.5 -2.5 z"
             id="path23" /><path
             d="m 388.5,116.95 c -2.6,-1.05 -5.15,-4.3 -10.05,-12.8 l -3.2,-5.65 h -2.1 -2.15 v 9.25 9.25 h -2.75 -2.75 v -16.85 c 0,-9.3 -0.25,-17.8 -0.5,-18.9 -0.5,-2.3 -1.6,-3.25 -3.65,-3.25 -0.9,0 -1.35,-0.2 -1.2,-0.6 0.3,-1 18.9,-0.75 22.45,0.3 3,0.85 6.05,3.15 7.2,5.4 1,1.95 1,7.35 0,9.3 -1.05,2 -3.3,3.8 -6.05,4.85 -1.25,0.5 -2.25,1 -2.25,1.15 0,0.5 3.25,6 6.3,10.6 2.95,4.5 5.05,6.5 6.95,6.5 0.5,0 0.75,0.3 0.65,0.9 -0.1,0.65 -0.75,0.85 -2.9,0.95 -1.5,0.05 -3.3,-0.1 -4,-0.4 z m -8.15,-22.1 c 2.8,-1.45 4.15,-3.8 4.15,-7.1 0,-3.45 -1.15,-5.65 -3.85,-7.25 -2,-1.2 -6.25,-1.85 -8.35,-1.3 l -1.3,0.35 0.1,8.1 0.15,8.1 2,0.25 c 2.5,0.35 5.05,-0.1 7.1,-1.15 z"
             id="path24" /><path
             d="m 398.35,117.15 c -0.25,-0.4 0.7,-2.85 6.4,-16.4 0.9,-2.2 3.5,-8.4 5.75,-13.75 2.25,-5.35 4.25,-9.95 4.45,-10.15 0.7,-0.7 1.9,0.2 2.45,1.8 0.7,2.25 12.8,31.8 13.55,33.35 1.1,2.05 2.6,3.45 4.1,3.75 0.8,0.2 1.45,0.65 1.45,1.05 0,1.05 -4.3,0.9 -6.75,-0.25 -2.65,-1.2 -3.9,-2.7 -5.5,-6.3 -0.7,-1.65 -1.5,-3.35 -1.7,-3.75 -0.35,-0.6 -1.85,-0.75 -8.85,-0.75 h -8.45 l -2.35,5.75 c -1.75,4.35 -2.55,5.8 -3.3,5.9 -0.55,0.1 -1.1,-0.05 -1.25,-0.25 z m 22.5,-14.75 c -0.15,-0.35 -1.65,-4 -3.3,-8.05 -1.65,-4.05 -3.2,-7.75 -3.45,-8.15 -0.3,-0.55 -0.7,0.05 -1.55,2.15 -0.65,1.6 -1.65,3.9 -2.2,5.15 -1.1,2.45 -3.85,9.15 -3.85,9.4 0,0.05 3.3,0.1 7.3,0.1 5.65,0 7.25,-0.15 7.05,-0.6 z"
             id="path25" /><path
             d="m 443,99.6 c 0,-11.45 -0.2,-18 -0.55,-19.05 C 441.85,78.8 440.7,78 438.8,78 c -0.7,0 -1.3,-0.2 -1.3,-0.5 0,-0.75 8.15,-0.65 9.2,0.15 1.5,1.1 1.8,4.2 1.8,20.7 v 16.15 l 10.65,0.1 c 10.2,0.15 10.6,0.2 10.6,1.15 0,0.95 -0.4,1 -13.35,1.15 L 443,117 Z"
             id="path26" /><path
             d="m 102.95,107.7 c -0.5,-0.15 -1.35,-1.75 -2.1,-3.85 -2.8,-7.9 -6.65,-17.25 -7.1,-17.35 -0.25,-0.05 -1.85,2.5 -3.5,5.65 -1.65,3.15 -3.3,6.1 -3.7,6.55 -1.1,1.3 -2.95,0.95 -8,-1.4 l -4.7,-2.25 -3.75,4.05 c -2.1,2.2 -4.3,4.2 -4.95,4.45 -1.55,0.6 -3.1,-0.1 -6.65,-2.8 L 55.6,98.5 h -8.5 c -4.7,0 -8.85,-0.15 -9.3,-0.3 C 35.5,97.3 38,97 47.55,97 H 58.1 l 2.8,2.05 2.85,2 4,-4.25 c 2.25,-2.4 4.45,-4.3 4.95,-4.3 0.5,0 2.9,0.9 5.35,2 2.45,1.1 4.7,2.05 4.95,2.15 0.3,0.05 2.2,-3.15 4.3,-7.15 4.95,-9.5 4.95,-9.5 6.65,-9.5 1.85,0 2.2,0.45 4.3,6 3.75,9.9 5.85,15 6.2,15 0.2,0 1.7,-3.1 3.35,-6.85 3.05,-6.9 3.05,-6.9 4.8,-7.05 1.6,-0.15 2,0.1 4.15,2.6 1.35,1.65 2.8,2.8 3.35,2.8 0.55,0 2.9,1.05 5.3,2.3 3.9,2.05 4.6,2.25 6.75,2 1.3,-0.15 4.25,-1.1 6.5,-2.1 6.15,-2.85 9.8,-2.45 15.25,1.65 1.8,1.35 1.85,1.6 1,2.8 -0.9,1.2 -9.1,2.5 -11.45,1.85 -2.45,-0.7 -5,-0.6 -7.5,0.3 -3.65,1.35 -7.75,1.1 -10.95,-0.65 -1.5,-0.8 -3.35,-1.7 -4.05,-1.95 -0.7,-0.25 -2.6,-1.95 -4.15,-3.8 -1.6,-1.9 -3,-3.4 -3.2,-3.4 -0.35,0 -0.6,0.55 -3.4,7 -3.75,8.75 -4.7,9.9 -7.25,9.2 z"
             id="path27" /></g><g
           fill="#ffffff"
           id="g52"
           transform="matrix(0.00107112,0,0,0.00107112,147.58344,94.826809)"><path
             d="m 188.6,1278.8 c -25.5,-1.3 -51,-6.1 -71.6,-13.7 -19.9,-7.3 -26.1,-13.3 -26.8,-26 -0.5,-8.1 1.3,-12.4 14,-34.1 16.4,-28 20.6,-35.6 28.6,-51.5 13,-26.1 20.9,-46.3 26.8,-68.7 1.5,-5.7 3.5,-12.1 4.4,-14.3 3,-7.1 11.5,-13.1 22.7,-16 16.4,-4.3 28.7,2 36.7,18.8 10.1,21.1 13.5,49.9 13.6,112.2 0,59 -2.5,73.5 -14.7,86.6 -6.7,7.2 -10.3,7.9 -33.7,6.7 z"
             id="path1" /><path
             d="m 265,1277.5 c -0.8,-0.2 -3.6,-0.7 -6.2,-1 -9,-1.2 -13.5,-8 -10.9,-16.5 0.6,-2.1 2.5,-5 4.2,-6.4 6.2,-5.3 18.7,-3.1 48.8,8.5 21.8,8.4 27.6,12.2 22.4,14.4 -1.8,0.8 -55.6,1.7 -58.3,1 z"
             id="path2-6" /><path
             d="m 444.5,1275.9 c -49.1,-0.7 -54.8,-1.4 -68.5,-7.3 -19.4,-8.4 -65.9,-39.5 -78.1,-52.3 -7.2,-7.5 -7.4,-11.8 -0.4,-11.5 6.4,0.2 18.7,7 32.9,18.2 8.1,6.3 12.6,8.3 16.1,7 1.9,-0.7 2.5,-1.6 2.5,-4.1 0,-3.4 -1.1,-4.6 -14.8,-16.7 -7.5,-6.6 -8.7,-9.4 -6.2,-14.3 1.3,-2.4 6.1,-4.9 9.5,-4.9 3.4,0 13.2,4.5 23,10.7 14.2,8.9 18.3,10.5 22.9,8.7 1.6,-0.6 2.1,-3 1,-5.8 -0.3,-0.8 -4.6,-4.5 -9.4,-8.1 -12.5,-9.3 -14.7,-13.4 -9.2,-17.3 7.2,-5.2 11.7,-4.1 47.2,11.4 52.2,22.7 57.2,24.3 58.6,18.9 0.4,-1.5 0,-3.4 -0.9,-4.8 -1.6,-2.4 -4.3,-3.9 -29.1,-15.4 -17.4,-8.1 -30.7,-15.7 -34.5,-19.7 -2.9,-3.1 -3,-7.4 -0.3,-9.7 5.6,-4.5 19.5,-2.6 33.7,4.6 5,2.5 19.1,10.8 31.4,18.5 40.2,25.1 48,28 75.5,28 h 17.1 l 6.4,3.7 c 14.1,8.4 42.2,31.1 53.6,43.4 7.1,7.7 9,11.4 7.7,14.4 -1.4,3.1 -3.9,3.4 -48.7,4.5 -41,1.1 -70.2,1 -139,-0.1 z"
             id="path3-2" /><path
             d="m 656.4,1274.2 c -1.7,-1.1 -5.1,-5.4 -7.7,-9.8 -5.3,-9 -9.8,-14.8 -19.8,-25.1 -12.2,-12.7 -24.9,-22.1 -58.9,-43.5 -11.8,-7.5 -11.8,-7.8 -0.8,-22.4 10.7,-14.3 19.2,-22.5 27.6,-26.6 6.4,-3.1 7.2,-3.3 17.7,-3.2 9.8,0 12,0.4 20,3.3 29.7,10.8 60.3,32.1 81.5,56.7 10.8,12.5 20.5,26.9 22.1,32.6 4,15 -10.9,29.7 -37.1,36.5 -7.6,2 -12.7,2.6 -25.5,3 -14.6,0.4 -16.3,0.3 -19.1,-1.5 z"
             id="path4-4" /><path
             d="m 288,1240.9 c -16.9,-8.7 -22,-12.7 -22,-17.3 0,-4.6 2.9,-7 7.4,-6.2 3.5,0.7 14.5,9.5 27.4,22 11.3,11 7,11.6 -12.8,1.5 z"
             id="path5-9" /><path
             d="m 759.9,1233 c -5.3,-1.6 -7.1,-3.4 -14.2,-14.3 -24.4,-37.3 -56.5,-64.6 -95.7,-81.4 -5.7,-2.4 -14.5,-5.6 -19.5,-7 -12,-3.4 -13.5,-4.4 -13.5,-9.1 0,-12 29,-41.1 60.8,-60.9 35.7,-22.2 70,-34.6 105.9,-38.4 18.7,-1.9 30.2,1.3 40.3,11.3 6.3,6.2 10.7,15.1 12.1,24 1.2,8.4 1.2,38.9 0,50.8 -4.5,42.2 -22.3,85.7 -44.8,109.3 -11.8,12.4 -23.4,18.2 -31.4,15.7 z"
             id="path6-6" /><path
             d="m 56.4,1222.2 c -6.8,-4.4 -9.2,-7.2 -19.4,-22.7 -7.9,-12 -22.6,-40.7 -23.6,-46.1 -0.5,-2.6 0,-4.8 2,-8.9 5.2,-10.4 19.6,-20.8 50.6,-36.4 21.3,-10.7 37,-17.2 48.7,-20.2 9.6,-2.4 13,-2.4 17,0.1 10.9,6.6 3.8,30.5 -23.7,79.5 -19.9,35.4 -36.9,58.5 -43.3,58.5 -1.3,0 -5.1,-1.7 -8.3,-3.8 z"
             id="path7-8" /><path
             d="m 262,1187.2 c -3.8,-1.9 -6.7,-6.2 -8.1,-12 -0.5,-2 -1.8,-13.8 -2.9,-26.2 -1.1,-12.4 -2.7,-26.6 -3.5,-31.7 -1.6,-8.8 -2.6,-13.1 -9.4,-38.8 -6.3,-23.4 -5.4,-31.2 4.8,-41.4 12.1,-12.1 39.7,-22.4 81.6,-30.5 21.7,-4.1 21.9,-4 6.5,2.2 -19.6,8 -50.9,22.8 -53.7,25.4 -3.2,3 -3.1,7.5 0.2,9 2.1,1 4.4,0.2 18.2,-6.2 51.7,-23.9 81.2,-31.7 127.3,-33.5 8.5,-0.3 18.7,-1.3 22.7,-2.2 7.5,-1.6 12.6,-1.2 9,0.9 -1,0.5 -13.4,4.9 -27.5,9.8 -88,30.2 -129.4,45.5 -131.9,48.8 -1.8,2.2 -1.6,5.7 0.2,7.2 3.6,3 2.5,3.3 72.3,-21.9 70.6,-25.5 104.6,-36.1 115.7,-36.1 22,0 57.7,17.9 82.2,41.4 19.4,18.4 29.3,36.3 29.3,52.6 0,9.6 -1.5,12.7 -10.1,21.5 -6.8,7 -8,8.8 -8.9,13.2 -2.4,11 -20.5,31.8 -32.8,37.6 -8.9,4.3 -21.6,4.9 -33.8,1.8 -14.4,-3.7 -40,-15.2 -54.6,-24.7 -14.1,-9.1 -13.1,-16.2 4.9,-35.4 16.8,-18 20.2,-26.4 12.3,-30.5 -6,-3.1 -11.5,-1.6 -48,13.3 -19.9,8.1 -40,15.5 -40,14.7 0,-0.7 13.3,-9.1 38.7,-24.1 45.8,-27.2 55.3,-33.5 63.8,-42 5.8,-5.9 7.5,-9.3 7.5,-14.7 0,-4 -0.5,-5.4 -2.9,-7.8 -2.5,-2.5 -3.7,-2.9 -8.1,-2.9 -6.8,0 -15.2,2.9 -42.9,15 -12.7,5.5 -39.9,17 -60.5,25.5 -60.5,24.9 -68.6,29 -68.6,34.1 0,1.6 0.8,2.8 2.4,3.5 4.4,2.1 22.7,-4.9 101.1,-38.4 45.2,-19.3 61.1,-25.7 63.7,-25.7 2.1,0 -3.6,5.1 -13.2,12 -14,10 -36.4,23.9 -73,45.2 -46.2,27 -49,29 -49,35.3 0,3.1 3.2,6.5 6.3,6.6 12.8,0.6 36.8,-6.7 80.5,-24.5 20.6,-8.3 25,-9.7 23.7,-7.6 -0.4,0.6 -1.1,0.7 -1.7,0.4 -0.6,-0.4 -0.8,-0.2 -0.5,0.3 0.8,1.3 -6.5,8.2 -15.4,14.8 -22.4,16.5 -76.3,42.3 -121.7,58.2 -28.3,9.9 -44.3,12.5 -52.2,8.5 z"
             id="path8-3" /><path
             d="m 15.9,1105.1 c -1.8,-1.5 -2.2,-2.7 -2.1,-7 0.5,-23.8 45.9,-131.5 86.7,-205.9 28.3,-51.8 48.2,-77.2 60.2,-77.2 5,0 9.6,2.8 21.8,13.2 21,17.9 31.2,24.9 50.3,34.8 16,8.2 19,11.6 17.9,20.6 -0.6,6 -3.2,8.6 -18.7,18.9 -19.5,13 -31.6,25.8 -40.1,42.7 -7.4,14.8 -9.9,27.5 -11.8,60.3 -1.1,19.1 -2.1,21.7 -10.3,29.7 -22.6,21.8 -106,63.3 -139.8,69.6 -11.6,2.2 -11.8,2.2 -14.1,0.3 z"
             id="path9-7" /><path
             d="m 609.7,1075 c -12.9,-3.3 -22.9,-14.3 -25.5,-28.1 -1.8,-9.5 4.2,-20 18.1,-31.9 12.8,-10.9 28,-19.1 53.2,-28.5 30.4,-11.4 44,-13.9 75.5,-13.9 25.8,-0.1 38.7,1.4 54.7,6 15.8,4.6 28.1,12.8 29.9,20 1.3,5.1 -3.4,6.5 -28.1,8.3 -50.5,3.7 -101,24 -138,55.5 -13.2,11.2 -16.7,12.9 -27.5,13.3 -4.7,0.1 -10.2,-0.2 -12.3,-0.7 z"
             id="path10-3" /><path
             d="m 4.8,1045.8 c -1,-1.7 -1.4,-10 -1.6,-31.6 -0.4,-34.9 0,-37.3 8.2,-49.6 C 26.7,941.7 72,890 76.8,890 c 5.2,0 3.8,4.7 -9.8,33 -14,29.2 -20.8,44.5 -34.2,77.5 -12,29.6 -18,43 -20.5,45.7 -2.2,2.5 -6,2.3 -7.5,-0.4 z"
             id="path11-2" /><path
             d="m 199.7,1025 c -1.5,-1.2 -3.1,-3.8 -3.7,-5.8 -1.1,-3.9 -1.4,-37 -0.4,-39.6 0.3,-0.9 1.5,-1.6 2.5,-1.6 2.1,0 4.7,4.5 8.4,14.8 6.6,18.4 8.3,31.1 4.6,33.2 -3.2,1.6 -8.6,1.2 -11.4,-1 z"
             id="path12-7" /><path
             d="m 565.3,1022.3 c -6.4,-7 -18.5,-37.1 -18.7,-46.8 -0.1,-7.6 1.3,-9.7 14.2,-20.9 46.6,-40.3 75,-90.9 91.1,-162.4 5.3,-23.4 6,-25.1 9.9,-25.2 4.6,0 16.5,16.2 38.7,52.5 19.6,32.2 21.4,34.5 27,34.5 6,0 10.2,-6.2 18.8,-28 9.6,-24.5 16,-51.9 20.4,-88 2.6,-20.9 2.6,-86.1 0,-107 -8,-65.8 -27.6,-117.6 -66.3,-176 -14.7,-22.1 -23.3,-30 -32.9,-30 -4.3,0 -6.5,0.9 -15.8,6.1 -11.2,6.3 -16.8,8 -20.7,5.9 -3.2,-1.7 -2.2,-5.5 4.6,-16.8 23.9,-40 31.4,-73.4 30.1,-134.2 -0.6,-28 -1.5,-35.9 -6.3,-52.4 -4.7,-16.4 -4.1,-21.9 3.1,-30.4 8.7,-10.3 42.5,-33.2 49,-33.2 3.3,0 4.9,2 7.9,9.7 8.6,22.6 13.2,54.5 12.3,85.1 -0.6,20.7 -2.4,34 -6.7,51.2 -5.9,23.5 -12.8,38.8 -26.8,59.4 -15.5,22.9 -16.9,26.5 -13.7,34.3 0.9,2 6.9,10.7 13.4,19.2 13.3,17.7 17.3,23.4 25.9,37.7 6.9,11.6 18.3,33.8 23.7,46.4 40.5,94.6 44.4,211.7 10.5,310.5 -14.3,41.4 -15.4,46.2 -14,58.4 1.1,8.5 5.9,17.9 16.6,32.1 13.6,18 20.2,34 16.2,39.3 -2.1,2.8 -7.7,3.5 -33.8,4.7 -38.8,1.7 -59.9,4.4 -81.5,10.6 -31.4,9.1 -52.8,20.9 -75.5,42 -10.5,9.7 -16.1,14.4 -17.4,14.4 -0.4,0 -1.8,-1.2 -3.3,-2.7 z"
             id="path13-9" /><path
             d="m 232.1,1013.2 c -0.6,-1.2 -1.1,-2.3 -1.1,-2.5 0,-1.4 3.5,-1.4 8,-0.1 6.9,2 10.4,1.6 10.8,-1.4 0.6,-4.2 -2.5,-6.9 -14.2,-12.6 -17.8,-8.7 -23.3,-16.7 -24.3,-35.1 -0.9,-14.7 3.5,-27.6 12.4,-36.6 7.3,-7.5 18.9,-12.4 22.7,-9.6 1.8,1.3 1.8,1.8 0.2,12.8 -2,14.4 -2.1,34.4 -0.1,44.1 0.9,4 3.3,12.5 5.5,18.9 6.9,20.1 5.7,23.2 -9.5,23.7 -8.5,0.4 -9.4,0.2 -10.4,-1.6 z"
             id="path14-5" /><path
             d="m 271,998.4 c -14.7,-13.3 -20.1,-46.1 -11.3,-68.6 3.1,-7.7 4,-4.7 5.3,17.4 1.4,23 3,29.4 10.2,42.5 6.1,11.2 3.8,15.9 -4.2,8.7 z"
             id="path15-7" /><path
             d="M 500.5,1000.1 C 491.4,996 487.9,989.6 486,973 c -2,-17.3 -3.8,-18.5 -27,-18.5 -23.7,-0.1 -26,-0.2 -26,-2 0,-0.8 1.7,-1.9 3.8,-2.6 5.4,-1.7 33.5,-2.4 39.9,-0.9 7.6,1.7 18.4,9.2 28.3,19.7 10.3,10.9 15.1,18.6 15.8,25.2 0.4,4.2 0.1,5 -1.9,6.5 -3.2,2.2 -13.2,2.1 -18.4,-0.3 z"
             id="path16-2" /><path
             d="m 295,997.9 c -4.4,-2.8 -5.5,-4 -9.2,-11.8 -2.5,-5 -3.3,-8.2 -3.6,-14.3 -0.3,-5.4 -0.1,-7.8 0.7,-7.8 0.7,0 1.1,2.2 1.1,5.9 0,7.9 1.3,8.9 7.1,5.2 2.5,-1.5 8.8,-6.8 14,-11.8 5.3,-4.9 11.2,-9.7 13.1,-10.6 3.9,-1.8 12.4,-2.3 14.8,-0.7 2.1,1.3 0.5,2.5 -6.5,4.5 -12.3,3.5 -23.2,10.9 -22.3,15.2 0.8,4 3.2,3.7 17.9,-2.2 12.7,-5.2 23.9,-8 23.9,-6.1 0,0.4 -6.8,4 -15.1,8.1 -8.3,4 -16.2,8.4 -17.5,9.6 -2.7,2.5 -3.1,5.7 -1,6.5 2.6,1 14,-2.6 25.1,-8 12.1,-5.9 17,-7.5 16.2,-5.4 -0.2,0.7 -1.1,1.2 -2,1.2 -0.9,-0.1 -1.4,0.2 -1.1,0.7 0.2,0.5 -3,2.6 -7.3,4.8 -4.3,2.1 -14.1,7.3 -21.8,11.5 -15.7,8.5 -20,9.4 -26.5,5.5 z"
             id="path17-2" /><path
             d="m 464.5,995 c -1.8,-3.5 -3.9,-4.7 -11.8,-6.9 -6.2,-1.6 -8.2,-3.5 -5,-4.4 1.7,-0.5 21.2,-1.1 26.1,-0.8 1.2,0 2.2,0.7 2.2,1.4 0,3.1 -7.1,13.7 -9.1,13.7 -0.5,0 -1.5,-1.3 -2.4,-3 z"
             id="path18-4" /><path
             d="m 349.2,990.6 c 0.9,-0.6 3.6,-2.5 6.1,-4.3 4.9,-3.4 8.7,-9.5 8.7,-13.9 0,-1.5 -0.5,-4.4 -1.2,-6.6 -1,-3.3 -0.8,-5.1 0.6,-10.9 1.7,-6.4 1.7,-7 0.2,-9.4 -2.6,-4 -6,-4.8 -20.3,-4.7 -21.8,0.2 -32,2.8 -41.6,10.5 -5.1,4.2 -7.9,5.7 -10.5,5.7 -2.6,0 -8.8,-7 -11.8,-13.4 -4.2,-9 -3,-23.6 3.2,-38.4 7.2,-17.2 7.1,-20.2 -0.4,-23.3 -13.6,-5.6 -26,-15 -34.8,-26.2 C 237.2,842.6 234,834.2 234,820 c 0,-17.4 6.8,-36.8 17.3,-49.5 1.4,-1.6 2.8,-2.7 3.1,-2.4 0.4,0.3 -0.3,4.6 -1.5,9.5 -3.2,12.8 -3.2,30.7 -0.1,38.4 2.8,7 2.8,8.8 -0.4,12.1 -9.7,10.2 0,35.1 15.9,40.6 7.5,2.5 21.7,2.5 24.6,-0.1 2.4,-2.2 2.7,-4.4 0.7,-7.1 -1,-1.4 -3.7,-2.1 -11.6,-3.1 -9.4,-1.1 -10.5,-1.5 -13.6,-4.5 -3.6,-3.4 -6.8,-10.5 -6.2,-13.4 0.2,-1.2 3.2,-2.7 9.9,-5 19.1,-6.4 32,-15.9 38,-28 6.9,-14.1 5.3,-32.2 -3.8,-40.7 -3.7,-3.6 -7.3,-4.8 -13.9,-4.8 -7.2,0 -12.9,2.9 -15.1,7.6 -2.1,4.3 -1.3,6 4.5,9.2 4.9,2.7 6.3,6.2 4.1,10.1 -2.1,3.7 -7.7,7.1 -11.5,7.1 -9.4,0 -11.1,-12.9 -3.7,-28 9,-18.5 26.6,-27.6 46.4,-24.1 3.5,0.6 12.5,2.9 19.9,5.1 18.8,5.7 25.6,7 37,7 12.8,0 18.2,-1.2 29.9,-6.8 15,-7 21.7,-6.8 30.5,1 6.4,5.6 10.1,11.3 13,19.9 2.8,8.4 3.3,12.4 4.5,33 0.6,10.1 1.4,15.6 2.5,17.7 3.2,6.2 8,3.2 13.6,-8.6 1.7,-3.7 7.3,-13.8 12.2,-22.6 14.7,-25.6 20.8,-41.8 26.7,-71.2 1.6,-8.3 3.7,-16.9 4.6,-19.2 3.1,-7.8 9.9,-11.3 22.1,-11.6 7.4,-0.1 9.1,1 10,7.1 1.3,8.7 -3.8,41.4 -9.2,58.4 -5.5,17.5 -17.7,40 -29.2,53.4 -8.2,9.7 -27.3,29 -32.5,32.9 -5.6,4.2 -9.4,4.6 -14.3,1.5 -1.9,-1.1 -4.6,-1.9 -6.1,-1.7 -3,0.3 -2.8,0.1 -9.6,14.8 -4.5,9.8 -11.8,20.3 -22.6,32.5 -3.4,3.9 -6.9,8.3 -7.7,9.8 -1.4,2.6 -1.4,3.1 0.1,4.7 0.9,1 3.6,2.1 5.8,2.5 9.4,1.4 14.5,3.5 17.6,7 5.7,6.5 3.2,13.2 -6.9,18.6 -3.9,2 -6.7,4.3 -7.7,6.2 -2.7,5.3 -2.8,13.7 -0.2,28.8 2.1,12.6 2.2,14.3 0.9,16.6 -3.6,6.2 -4.1,6.4 -37.6,8.4 -17,1 -32.2,2 -33.8,2.2 -2.3,0.3 -2.6,0.2 -1.4,-0.7 z m 35,-71.5 c 14,-3.6 23.8,-10.2 23.8,-16 0,-3.3 -2.2,-5.1 -6.1,-5.1 -1.2,0 -5.8,1.8 -10.3,3.9 -13.3,6.5 -28.4,7.7 -44.1,3.6 -6.5,-1.7 -19.3,-7.7 -26.5,-12.5 -5.8,-3.8 -10.1,-4.7 -12.3,-2.5 -2.4,2.4 -2.1,6.9 0.7,10.2 2.5,2.9 19.4,12.3 29.6,16.3 13.1,5.2 29.9,6 45.2,2.1 z m 22.4,-35.7 c 6.3,-3 5.5,-9.7 -1.6,-13.8 -2.9,-1.7 -5.2,-2.1 -13,-2.1 -10.2,0 -14.9,1.5 -17.1,5.6 -1.4,2.7 -0.4,6.6 2.1,7.9 7.2,3.9 23.7,5.2 29.6,2.4 z m 1.2,-26 c 2.7,-3.1 2.7,-3.5 0.1,-6.8 -2.8,-3.5 -8,-3.6 -11.4,-0.1 -2.8,2.7 -3,3.7 -1.4,6.6 2.3,4.5 8.8,4.6 12.7,0.3 z m 39,-21.4 c 3.1,-2.9 2.8,-6.4 -0.9,-9.2 -1.6,-1.3 -4.7,-3.8 -6.7,-5.6 -2,-1.8 -4.7,-3.5 -6,-3.9 -3.4,-0.8 -6.2,2.2 -6.2,6.6 0,9.8 13.5,18 19.8,12.1 z m -57.4,-11.4 c 3.6,-1.5 6.6,-5 6.6,-7.7 0,-0.9 -0.9,-2.7 -1.9,-4 -1.6,-2 -2.9,-2.4 -8.2,-2.5 -3.5,0 -8,-0.4 -10.1,-0.8 -7.6,-1.6 -10.4,6.9 -4,12.2 4.9,4 11.9,5.2 17.6,2.8 z"
             id="path19-1" /><path
             d="m 350,915.4 c -13.6,-2.9 -28.5,-9.7 -35.2,-16.2 -5.8,-5.4 -1.8,-5.8 6.8,-0.6 16.3,9.9 27.6,13.4 43.3,13.4 12.3,0 19.4,-1.5 30,-6.5 7.4,-3.6 10.1,-4.2 10.1,-2.6 0,2.9 -14.1,10.2 -24.1,12.6 -7.9,1.8 -22.2,1.8 -30.9,-0.1 z"
             id="path20-0" /><path
             d="m 386.5,879.5 c -0.5,-0.2 -2.2,-0.6 -3.7,-0.9 -3.3,-0.8 -3.8,-4 -0.9,-5.6 1.1,-0.5 5.8,-1 10.4,-1 8,0 8.7,0.2 11.7,3 1.7,1.6 2.9,3.4 2.5,4 -0.6,0.9 -17.5,1.4 -20,0.5 z"
             id="path21-2" /><path
             d="m 397,854.5 c 0,-0.8 1.1,-1.7 2.5,-2.1 3.4,-0.8 7.5,0.3 7.5,2.1 0,1.1 -1.3,1.5 -5,1.5 -3.7,0 -5,-0.4 -5,-1.5 z"
             id="path22-2" /><path
             d="m 437.5,833.1 c -5.3,-3.2 -8.8,-10.7 -5.6,-11.9 0.9,-0.3 1.1,0 0.6,0.8 -0.5,0.9 -0.4,1.1 0.4,0.6 0.6,-0.4 2.2,0.5 3.6,2.2 1.3,1.6 3.8,3.5 5.5,4.2 2.8,1.1 4.4,5 2.1,5 -0.5,0 -1.5,0.2 -2.3,0.5 -0.7,0.3 -2.7,-0.3 -4.3,-1.4 z"
             id="path23-0" /><path
             d="m 376.5,820.3 c -3.7,-2 -4.8,-3.5 -3.2,-4.5 1.2,-0.8 19.7,-1.1 19.7,-0.4 0,5.4 -10,8.4 -16.5,4.9 z"
             id="path24-8" /><path
             d="m 532.7,987.8 c -4.1,-6.7 -5.7,-10.1 -5.1,-10.9 0.3,-0.5 0.1,-0.8 -0.4,-0.7 -0.5,0.2 -3,-2.5 -5.6,-5.9 -7.6,-10 -19,-19.8 -37.1,-31.8 -20.6,-13.7 -33.7,-26.3 -39.9,-38.2 -1.6,-3.1 -1.5,-3.3 0.6,-4.4 2.9,-1.6 14.7,-0.5 21.8,1.9 15.2,5.2 23.6,12.3 34.5,28.6 9.9,15.1 28.3,49.2 32.1,59.9 1.5,4.2 1.1,4.8 -0.9,1.5 z"
             id="path25-8" /><path
             d="m 437.8,971.4 c -2.7,-0.8 -2.2,-3.3 0.8,-4 5,-1.3 32.2,-1 33.5,0.3 1,1 0.6,1.4 -1.5,2.3 -3,1.1 -30,2.3 -32.8,1.4 z"
             id="path26-5" /><path
             d="m 531.9,942.2 c -2,-1 -6.8,-6 -11.7,-12.2 -4.6,-5.8 -12.1,-15.2 -16.6,-21 -4.6,-5.8 -13.6,-16.5 -20.1,-23.9 -6.4,-7.3 -12.1,-14.5 -12.6,-15.9 -2.1,-5.4 -0.3,-8 18,-26.7 20.3,-20.7 30.1,-32.2 39.4,-46.1 22.2,-33.6 33.1,-73.1 29.8,-108.6 -1.7,-18.5 -3.9,-29 -9.8,-47.3 -5.8,-17.7 -4.6,-23.5 4.6,-23.5 7.2,0 13.9,4.6 28.6,19.4 15.1,15.2 23.5,25.4 34.6,42 8.9,13.4 19.8,34.2 22.6,43.1 2.7,9.1 2.5,36.7 -0.6,53 -5.9,32 -16.5,63.4 -31.5,93.5 -19.2,38.5 -39.3,63 -59.1,72 -8.2,3.8 -11.5,4.2 -15.6,2.2 z"
             id="path27-8" /><path
             d="M 3.8,940.8 C 2.8,939 2.5,925.7 2.5,879 2.6,817.6 3,811 6.6,811 c 2.8,0 48.7,49.4 51.5,55.5 2.4,5.1 2.3,7.2 -0.1,14.5 -4.1,12.3 -13.8,25.3 -35.2,47.3 -7.9,8.1 -15.1,14.7 -16,14.7 -1,0 -2.3,-1 -3,-2.2 z"
             id="path28" /><path
             d="M 72,854.1 C 49.8,847.3 13.5,799 3.4,762.5 c -2.8,-9.7 -3.8,-37 -2.6,-66.6 1.7,-41.8 2.1,-42.8 33.4,-76.6 20.4,-22 26.1,-28.7 56.8,-66.8 49.2,-61 55.2,-67.5 62.3,-67.5 5.3,0 5.7,2 5.7,30.8 0,48.2 -1.9,57.4 -20.9,104.4 C 127,647.5 123,666.5 123,692 c 0,22.8 3.3,36.7 19,79.5 3.2,8.8 2.5,18.9 -1.9,27.1 -6.7,12.7 -41.7,50.5 -50.3,54.4 -4.4,2 -13,2.5 -17.8,1.1 z"
             id="path29" /><path
             d="m 209,833.7 c -18.7,-7.8 -37.1,-28.9 -53.3,-61.3 -10,-20 -16.1,-39.4 -18.7,-60 -1.6,-11.9 -0.8,-41 1.5,-53.4 5.2,-28.5 18,-59.6 29.1,-70.7 3.6,-3.6 5,-4.3 8.2,-4.3 5.2,0 10.5,3.9 17,12.6 8,10.7 10.6,16.7 10.7,24.4 0,6.1 -0.5,7.4 -7.2,21 -12.6,25.5 -15.8,40 -15,67.8 0.5,20 2.3,29.9 8.3,45.9 4.9,13.2 9.9,22.2 20,35.6 4.7,6.2 8.9,13 9.5,15.2 2.3,8.2 3.6,24.9 2.1,27.2 -1.5,2.4 -6.5,2.4 -12.2,0 z"
             id="path30" /><path
             d="m 268.8,814.5 c -2.8,-1.6 -4.4,-4.7 -3.3,-6.5 0.4,-0.7 3.3,-0.8 8,-0.4 6.8,0.6 7.9,0.4 13,-2 6.9,-3.4 10.4,-8 12.6,-16.5 1.7,-6.4 1.7,-6.5 1.8,-2.4 0.2,8.9 -7.4,23 -14.4,27 -4.7,2.7 -13.5,3 -17.7,0.8 z"
             id="path31" /><path
             d="m 462.2,785.4 c -1.8,-3.5 -7.2,-21.4 -7.2,-24 0,-4.1 3.2,-2.6 5.8,2.8 2.8,6 4.9,18.7 3.5,21.3 -1,1.8 -1.1,1.8 -2.1,-0.1 z"
             id="path32" /><path
             d="m 212.3,771.8 c -2.5,-2.8 -4.3,-6.4 -8.2,-16.1 -7.3,-18.4 -10,-37.8 -8.2,-59.4 2.6,-30.6 11.6,-52.2 31.5,-75.5 18.4,-21.5 51.4,-40.6 83.6,-48.2 39.9,-9.4 81.3,-3.7 114.7,16 35.9,21.1 61.1,57.9 67.9,99.3 2.2,13.4 1.5,37.1 -1.4,47.6 -5.2,18.8 -12.7,30.4 -18,27.6 -1,-0.5 -3,-3.8 -4.6,-7.3 -7.9,-17.3 -14.9,-31 -19.3,-37.5 -19.9,-29.6 -46.2,-48.2 -75.8,-53.8 -13.1,-2.5 -36.3,-1.6 -49.7,1.9 -27.3,7 -52.8,21.7 -69.7,40.2 -11.7,12.8 -22.2,30.9 -29.5,50.9 -5.6,15.3 -6.2,16.5 -8.9,16.5 -1.3,0 -3.3,-1 -4.4,-2.2 z"
             id="path33" /><path
             d="m 241,754.6 c 0,-2.8 10.1,-16.5 17.1,-23.1 7.8,-7.3 16,-11.8 24.8,-13.5 3.1,-0.6 21.8,-1 43.6,-1 21.5,0 40.6,-0.4 43.5,-1 7.9,-1.5 14.7,-5 21.5,-10.9 3.3,-2.9 7.9,-6.3 10.3,-7.4 3.9,-2 4.5,-2 7,-0.6 5.4,3 3.4,10.2 -5.7,20.1 -10.9,11.9 -26.1,14 -59.6,8.2 -5,-0.8 -15.6,-1.8 -23.7,-2.1 -12.1,-0.5 -16,-0.3 -22,1.2 -14.9,3.6 -27.1,10 -43.4,23 -10.4,8.3 -13.4,9.9 -13.4,7.1 z"
             id="path34" /><path
             d="m 332,704.4 c -1.9,-0.3 -8.4,-1.1 -14.3,-1.9 -5.9,-0.8 -13.4,-1.5 -16.7,-1.5 -6.3,0 -9,-0.7 -9,-2.2 0,-0.5 0.4,-0.6 1,-0.3 0.5,0.3 0.7,0 0.4,-0.8 -1.4,-3.8 17.5,-14.2 33.3,-18.3 17.6,-4.6 48.4,-4.4 56.5,0.4 9.4,5.5 2.9,16.7 -13,22.4 -4.6,1.6 -8.6,2.1 -20.2,2.3 -8,0.2 -16.1,0.1 -18,-0.1 z"
             id="path35" /><path
             d="m 507.7,674.9 c -2.3,-2.4 -4.8,-7.1 -8.2,-15.9 -15.5,-40 -38.6,-65.5 -77.5,-85.6 -5.2,-2.7 -11.4,-6.7 -13.7,-9 -3.9,-3.7 -4.3,-4.5 -4.3,-9 0,-9.1 5.8,-26.1 10.2,-30.1 5,-4.5 18.1,-0.2 38.6,12.5 17.9,11.1 37.4,28.1 50.2,43.7 18.1,22.1 33,52.5 35.5,72.7 0.9,7.2 -0.5,11.4 -5.3,16 -5.1,4.9 -9.5,6.9 -16.3,7.5 -5.6,0.5 -6,0.4 -9.2,-2.8 z"
             id="path36" /><path
             d="m 212.6,598.9 c -9.4,-5 -19.7,-20.1 -19.8,-29.1 -0.1,-5.7 3.4,-11.1 12.9,-19.8 24,-22 63.9,-38.2 103.9,-42.1 14.8,-1.5 48.4,-0.6 64.7,1.6 19.5,2.6 20.2,3.3 20.2,17.9 0,8.3 -0.4,11 -2.2,14.8 -4.1,8.9 -9.1,10.4 -39.3,11.8 -27.9,1.3 -45.6,3.7 -63.7,8.5 -19.5,5.3 -30.3,11.1 -48.8,26 -16.3,13.2 -19.9,14.6 -27.9,10.4 z"
             id="path37" /><path
             d="m 471.5,534.2 c -2.7,-0.9 -12.9,-6.1 -22.5,-11.4 -9.6,-5.3 -21.8,-11.5 -27,-13.8 -16.8,-7.2 -20,-8.9 -24.5,-13.1 -10.4,-9.6 -15.1,-29.3 -11,-45.3 2.2,-8.2 9.5,-25.1 14.6,-33.4 6.8,-11 16.2,-22.3 27.9,-33.5 12.7,-12.1 25.1,-21.2 37.5,-27.3 12.8,-6.2 19.5,-7.7 33,-7.2 9.7,0.4 11.9,0.8 17.5,3.4 8.2,3.9 11.9,7 16.5,13.9 4.3,6.6 6.6,8.1 9.8,6.4 4.5,-2.4 4.8,-5.3 1.2,-12.5 -5,-10.1 -15.7,-18.4 -29.3,-22.9 -3,-0.9 -5.1,-2.2 -4.9,-2.8 0.7,-2.4 28.8,-10.4 45.7,-13.2 12.2,-1.9 32.7,-1.9 42.2,0 20.9,4.3 35.8,18.7 39,37.6 0.9,5.3 0.8,7.7 -0.6,14.2 -1,4.3 -2.4,8.1 -3.1,8.4 -0.8,0.2 -4.5,-1 -8.2,-2.9 -5.9,-2.9 -7.7,-3.3 -14.3,-3.2 -5,0 -9.2,0.7 -12.6,2.1 -21.6,8.5 -45.3,38.2 -61,76.4 -7.5,18.4 -9.9,20.2 -19,14.8 -5.5,-3.3 -10.4,-1.6 -10.4,3.6 0,6.4 10.5,12.6 21.7,12.9 5.2,0.1 5.7,-0.1 8.7,-3.6 1.8,-2.1 4.5,-7 6.1,-11 7.9,-20.2 21.3,-46.8 23.5,-46.8 0.4,0 1.1,1.7 1.5,3.8 2,11.9 12,16.3 29.3,12.9 4,-0.8 7.5,-1.1 7.7,-0.7 0.6,0.9 -5.5,9.9 -12.6,18.6 -12,14.7 -22.9,23.6 -52,42.4 -7.5,4.8 -17.6,12 -22.5,15.9 -22.4,18.1 -33.7,22.2 -47.9,17.3 z m 28.9,-14.7 c 3,-2.8 3.2,-4.2 1.1,-7.2 -1.7,-2.5 -9.9,-5.3 -15.2,-5.3 -5.1,0 -7.3,1.6 -7.3,5.1 0,7.8 15.2,13.2 21.4,7.4 z m 21.4,-8.7 c 1.8,-1.8 1.4,-6.2 -0.9,-9.2 -2.6,-3.3 -6.3,-5.2 -11.6,-5.9 -2.3,-0.3 -5.7,-1.6 -7.5,-3.1 -2.1,-1.6 -6.8,-3.3 -12.3,-4.6 -5.4,-1.2 -10.8,-3.3 -13.6,-5 -2.5,-1.7 -5.6,-3 -6.8,-3 -2.4,0 -4.7,3.9 -3.8,6.4 2.3,6.1 42,25.5 52.3,25.6 1.6,0 3.5,-0.5 4.2,-1.2 z M 509.3,406.9 c 11.4,-3.7 16.3,-7.3 15.3,-11.2 -1,-4 -3.9,-4.9 -16,-5.1 -12.2,-0.1 -14.9,-1.1 -16.5,-5.9 -1.9,-5.2 -5,-8.7 -7.9,-8.7 -6.8,0.1 -8.8,6.3 -5.6,17 3,10.3 10,17 17.5,17 2,0 7.9,-1.4 13.2,-3.1 z"
             id="path38" /><path
             d="m 487.4,516.1 c -6.1,-2.8 -6.4,-4.1 -0.9,-4.1 5.2,0 10.5,2.3 10.5,4.5 0,2.1 -4.6,1.9 -9.6,-0.4 z"
             id="path39" /><path
             d="m 506,505.6 c -14.4,-4.4 -27.6,-11.4 -35.2,-18.4 -4.7,-4.3 -2,-4.4 5.7,-0.1 5.2,2.8 9.4,4.3 14.1,5 4.6,0.6 7.5,1.7 9.6,3.4 1.6,1.4 5.4,3.2 8.4,4.1 5.7,1.6 11.4,5.6 11.4,8 0,2 -2.2,1.7 -14,-2 z"
             id="path40" /><path
             d="m 491.3,404.5 c -6,-2.6 -11.2,-14.4 -9.4,-21.3 1,-3.8 2.2,-3.2 5.4,2.7 4.4,8 8.3,9.6 23,9.6 6.4,-0.1 11.7,0.2 11.7,0.5 0,2.6 -6.9,5.2 -25,9.3 -1.4,0.3 -3.9,0 -5.7,-0.8 z"
             id="path41" /><path
             d="m 176.7,527.9 c -4,-2.3 -5.1,-7.6 -5.1,-23.4 0.1,-12.3 0.6,-17.3 2.8,-28 4.9,-23.7 13,-44.3 27.1,-69 37.6,-66.1 87.3,-137.3 127.9,-183.5 25.8,-29.4 52.6,-56 62.7,-62.4 l 3.3,-2 -2,3.3 c -1,1.8 -6.8,8.9 -12.8,15.9 -47.3,55.1 -68.6,85.3 -89.7,127.2 -26,51.9 -35.7,85.2 -40.9,140.5 -2.3,24.7 -3.7,30.8 -9.7,43.5 -3.9,8.1 -5.8,10.7 -13.7,18.5 -9.9,9.9 -20.1,16.1 -31.2,19 -6.6,1.7 -16.1,1.9 -18.7,0.4 z"
             id="path42" /><path
             d="m 271.1,487.8 c -7,-3.7 -8.5,-11.2 -7.8,-38.8 0.4,-16.5 0.9,-22.1 2.6,-28.5 8.1,-30.6 34.2,-77.6 63.5,-114 9.7,-12.1 30.9,-33.9 43.1,-44.4 42.4,-36.5 90.6,-59.6 144.2,-69.2 16.8,-3 50.4,-3.8 66.2,-1.5 12.3,1.8 24.8,5.4 32.5,9.3 10,5.1 20.5,18 18,22 -1,1.6 -3.7,1.9 -25,2.4 -14.5,0.4 -27.8,1.3 -33.9,2.3 -61.7,10.3 -112.7,44.2 -168.8,112.4 -10.2,12.5 -26.4,33.9 -56.2,74.3 -21.5,29.2 -33.3,43.7 -47,57.6 -12.4,12.6 -16.9,15.6 -25,16.8 -2.4,0.3 -4.9,0.1 -6.4,-0.7 z"
             id="path43" /><path
             d="m 352.3,483.6 c -3.1,-1.4 -3.3,-1.8 -3.3,-6.4 0,-5.9 2.3,-12.9 7.8,-23.7 4.5,-9 7.6,-12.8 10,-12.3 1.5,0.3 1.7,2.6 2,19.9 0.2,17.7 0.1,19.7 -1.5,21.2 -2.6,2.3 -11.1,3 -15,1.3 z"
             id="path44" /><path
             d="m 320,479.2 c 0,-4.9 3.9,-10.9 12,-18.6 8.5,-8.1 10.6,-6 5,5 -3.1,6.1 -6.2,9.9 -11.9,14.7 -4.3,3.6 -5.1,3.4 -5.1,-1.1 z"
             id="path45" /><path
             d="m 581.3,438.1 c -6,-1.5 -7.9,-4.2 -9.4,-12.9 -1.2,-7.6 -0.4,-11.4 2.4,-11 1.7,0.2 2.6,1.6 3.9,5.8 2.5,7.8 4.7,9.3 17.4,11.9 6,1.3 11.3,2.7 11.7,3.1 2.4,2.2 -19.3,4.8 -26,3.1 z"
             id="path46" /><path
             d="m 609,432.5 c 0,-1.7 -4.6,-3.9 -6.1,-3 -1.3,0.9 -12.6,-1.4 -16.4,-3.2 -2.1,-1 -3.8,-2.8 -4.5,-4.7 -0.6,-1.7 -2,-4.8 -3.1,-6.9 -2.4,-4.6 -2,-5.7 6.1,-13 9,-8.1 16.8,-11.9 25.4,-12.5 6.2,-0.3 7.5,-0.1 10.6,2 5.1,3.5 6.5,6.9 5,12.6 -1.1,4.3 -8.4,19.5 -13,27 -2.1,3.4 -4,4.2 -4,1.7 z"
             id="path47" /><path
             d="m 376.9,417.6 c -3,-6.4 2.7,-18.5 18.5,-39.6 55.7,-74.4 121.9,-124.2 181.8,-137 35.2,-7.6 59.5,0 69.4,21.5 4.7,10.4 5.8,17 5.8,34.5 0,21.4 -3.1,31 -9.7,31 -1.3,0 -6,-2.8 -10.8,-6.4 -14.1,-10.7 -24.3,-15.3 -38.9,-17.6 -20.7,-3.2 -51.8,1.2 -79.6,11.5 -21.7,8 -51.4,24.2 -69.6,38.1 -20.3,15.4 -32.7,28.2 -47.9,49.4 -12.1,17 -16.4,20.3 -19,14.6 z"
             id="path48" /><path
             d="m 2.2,400.1 c 0.3,-9.2 0.7,-11.5 2.4,-13.8 2.8,-3.8 20.5,-18.1 47.9,-38.8 50.4,-37.9 84.9,-58.3 126.9,-75 10.4,-4.1 20,-8.4 21.2,-9.6 3.5,-3.3 5.1,-8.9 7.4,-25.9 6.3,-46.7 17.2,-78 38.1,-109.3 12.3,-18.5 17,-22.7 25.4,-22.7 6.3,0 8.7,1.5 18.2,11.2 13.4,13.6 22.5,25.5 26.8,35.1 3.7,8 3.4,8.6 -20,36.7 -23.5,28.2 -47.8,59.6 -63.5,82 -4,5.8 -8.4,11.7 -9.8,13.3 -3,3.2 -5.5,3.4 -16.2,1.1 -11.3,-2.3 -19.9,-0.3 -39.5,9.2 -49.4,24 -113.8,69.2 -156.1,109.6 -4.5,4.3 -8.5,7.8 -8.9,7.8 -0.4,0 -0.6,-4.9 -0.3,-10.9 z"
             id="path49" /><path
             d="m 202.2,370.8 c 1.7,-24.4 37.2,-92 69.3,-132 22,-27.5 64.5,-66.3 87.5,-79.8 6.6,-3.9 12,-5.9 12,-4.4 0,0.4 -8.7,9.6 -19.3,20.3 -26.4,26.8 -44.9,49 -70.9,85.1 -15.5,21.6 -21.8,31.4 -50.6,78 -19,30.8 -25.3,40 -27.4,40 -0.7,0 -0.9,-2.5 -0.6,-7.2 z"
             id="path50" /><path
             d="m 323,281.6 c 0,-5.1 9,-21.1 20.3,-36.3 12.1,-16.1 25.2,-30.6 55.5,-61.5 24.9,-25.5 31.9,-33.3 39.7,-44.5 2.4,-3.5 6.4,-5.1 16.1,-6.4 10.6,-1.4 33,-0.7 48.4,1.6 23.6,3.5 47.6,11.1 67.3,21.2 11.5,5.9 15.7,9.5 15.7,13.4 0,4.8 -0.7,5 -37.5,7.5 -38.9,2.6 -68.3,8.8 -97.5,20.4 -37.8,15.1 -65.1,32.8 -102.7,66.7 -17.9,16 -21.1,18.6 -23.1,17.8 -0.7,-0.3 -1,0 -0.7,0.5 0.3,0.6 0.1,1 -0.4,1 -0.6,0 -1.1,-0.6 -1.1,-1.4 z"
             id="path51" /><path
             d="m 637.5,185.6 c -1.6,-0.8 -7.9,-5.8 -14,-11.1 -41.3,-36.6 -78.4,-54.8 -123,-60.6 -4.9,-0.6 -16.9,-1.1 -26.5,-1.1 -28.7,0 -51.7,3.9 -80,13.7 -42,14.5 -47.8,15.9 -57.2,13.1 -4.3,-1.2 -7.2,-3 -11.9,-7.4 -7.9,-7.3 -19.2,-22.3 -24.8,-33.1 -3.9,-7.4 -4.3,-8.9 -3.9,-13.6 0.7,-8.7 4.9,-15.9 15.7,-26.5 32,-31.9 93.9,-55 154.4,-57.8 91.8,-4.3 167.1,34.5 219.1,112.8 10.9,16.3 12.6,19.9 12.6,25.7 0,4.7 0,4.8 -11.2,15.8 -17.4,17.1 -37.8,31.5 -44.3,31.5 -1.1,-0.1 -3.3,-0.7 -5,-1.4 z"
             id="path52" /></g></g></g></g></svg>
